HIERARCHY
ROOT joint_0
{
	OFFSET 0.000000 0.000000 0.000000
	CHANNELS 6 Xposition Yposition Zposition Zrotation Yrotation Xrotation 
	JOINT joint_1
	{
		OFFSET 6.579712 -2.778931 100.531982
		CHANNELS 3 Zrotation Yrotation Xrotation
		JOINT joint_2
		{
			OFFSET -3.313232 -1.302856 91.974976
			CHANNELS 3 Zrotation Yrotation Xrotation
			JOINT joint_3
			{
				OFFSET -3.421509 -1.641846 91.864014
				CHANNELS 3 Zrotation Yrotation Xrotation
				JOINT joint_4
				{
					OFFSET 7.697388 -4.642578 123.278931
					CHANNELS 3 Zrotation Yrotation Xrotation
					JOINT joint_5
					{
						OFFSET 24.842529 -5.941528 79.695068
						CHANNELS 3 Zrotation Yrotation Xrotation
						End Site
						{
							OFFSET 0.000000 0.000000 0.000000
						}
					}
				}
				JOINT joint_6
				{
					OFFSET -0.159668 -29.112976 68.364014
					CHANNELS 3 Zrotation Yrotation Xrotation
					JOINT joint_7
					{
						OFFSET -18.356079 -115.987061 -20.069092
						CHANNELS 3 Zrotation Yrotation Xrotation
						JOINT joint_8
						{
							OFFSET 31.719482 -11.733276 -267.170898
							CHANNELS 3 Zrotation Yrotation Xrotation
							JOINT joint_9
							{
								OFFSET 29.329956 -5.879517 -234.654053
								CHANNELS 3 Zrotation Yrotation Xrotation
								End Site
								{
									OFFSET 0.000000 0.000000 0.000000
								}
							}
						}
					}
				}
				JOINT joint_10
				{
					OFFSET 8.802979 23.897949 69.798950
					CHANNELS 3 Zrotation Yrotation Xrotation
					JOINT joint_11
					{
						OFFSET 21.159058 115.524292 -19.981934
						CHANNELS 3 Zrotation Yrotation Xrotation
						JOINT joint_12
						{
							OFFSET 18.809204 5.403442 -268.593018
							CHANNELS 3 Zrotation Yrotation Xrotation
							JOINT joint_13
							{
								OFFSET 20.807861 0.421265 -235.639038
								CHANNELS 3 Zrotation Yrotation Xrotation
								End Site
								{
									OFFSET 0.000000 0.000000 0.000000
								}
							}
						}
					}
				}
			}
		}
	}
	JOINT joint_14
	{
		OFFSET -9.713379 -79.513916 -99.348022
		CHANNELS 3 Zrotation Yrotation Xrotation
		JOINT joint_15
		{
			OFFSET -40.607788 -6.518372 -502.938019
			CHANNELS 3 Zrotation Yrotation Xrotation
			JOINT joint_16
			{
				OFFSET -19.807617 -7.437378 -399.590012
				CHANNELS 3 Zrotation Yrotation Xrotation
				JOINT joint_17
				{
					OFFSET 171.701660 -44.751282 -77.782000
					CHANNELS 3 Zrotation Yrotation Xrotation
					End Site
					{
						OFFSET 0.000000 0.000000 0.000000
					}
				}
			}
		}
	}
	JOINT joint_18
	{
		OFFSET 17.854858 79.618652 -98.128052
		CHANNELS 3 Zrotation Yrotation Xrotation
		JOINT joint_19
		{
			OFFSET -24.848877 16.861816 -503.722992
			CHANNELS 3 Zrotation Yrotation Xrotation
			JOINT joint_20
			{
				OFFSET -30.162476 14.470093 -398.750008
				CHANNELS 3 Zrotation Yrotation Xrotation
				JOINT joint_21
				{
					OFFSET 176.096680 -10.987549 -80.021000
					CHANNELS 3 Zrotation Yrotation Xrotation
					End Site
					{
						OFFSET 0.000000 0.000000 0.000000
					}
				}
			}
		}
	}
}
MOTION
Frames: 12
Frame Time: 0.016667
-2545.824707 932.226868 1097.020020 6.510106 -0.817527 0.026622 -1.616068 -3.541493 -1.253836 -1.478655 0.579287 0.084933 -1.511144 -0.719574 -0.180844 -1.611320 -0.572855 4.958044 0.000000 0.000000 0.000000 0.348604 2.953091 -0.976251 -0.108235 2.798286 0.504629 -0.078446 -1.371827 -0.892364 0.000000 0.000000 0.000000 -2.478637 1.284255 0.763669 -0.045513 2.223111 -2.067925 0.169192 -0.643997 1.922633 0.000000 0.000000 0.000000 -0.627180 1.782048 -0.914998 -0.855974 0.178908 2.246391 -0.684224 -0.978617 -0.564552 0.000000 0.000000 0.000000 0.145164 1.511798 0.868432 0.199233 -0.759111 -1.671632 0.099136 -0.103613 0.038609 0.000000 0.000000 0.000000 
-2545.723633 932.301453 1096.878052 6.493056 -0.804377 0.003041 -1.615043 -3.550274 -1.219331 -1.479215 0.580869 0.078547 -1.511488 -0.724669 -0.178122 -1.612766 -0.554469 4.967072 0.000000 0.000000 0.000000 0.357021 2.953964 -0.979810 -0.109705 2.802185 0.492837 -0.078258 -1.369575 -0.890479 0.000000 0.000000 0.000000 -2.481904 1.279807 0.763243 -0.046384 2.220629 -2.076763 0.168661 -0.641514 1.916355 0.000000 0.000000 0.000000 -0.623010 1.779397 -0.898089 -0.850887 0.161911 2.253287 -0.679758 -0.960734 -0.557871 0.000000 0.000000 0.000000 0.162036 1.509516 0.895047 0.217354 -0.767382 -1.673781 0.116617 -0.110188 0.046147 0.000000 0.000000 0.000000 
-2545.617188 932.370361 1096.760010 6.473984 -0.794066 -0.017915 -1.614929 -3.556403 -1.188510 -1.480622 0.582323 0.071579 -1.512579 -0.727594 -0.174426 -1.614587 -0.542285 4.975960 0.000000 0.000000 0.000000 0.367851 2.953393 -0.978299 -0.111819 2.806742 0.476166 -0.077942 -1.368891 -0.887863 0.000000 0.000000 0.000000 -2.484247 1.275625 0.758640 -0.046746 2.216078 -2.077411 0.168289 -0.635623 1.911757 0.000000 0.000000 0.000000 -0.618350 1.779293 -0.883869 -0.845501 0.146415 2.260169 -0.674920 -0.944583 -0.551473 0.000000 0.000000 0.000000 0.179206 1.510001 0.918567 0.235557 -0.773829 -1.675036 0.134142 -0.117595 0.053653 0.000000 0.000000 0.000000 
-2545.501465 932.432678 1096.687012 6.452703 -0.788026 -0.034162 -1.615444 -3.558539 -1.165382 -1.482332 0.583222 0.067671 -1.514071 -0.728020 -0.171763 -1.616775 -0.538610 4.984314 0.000000 0.000000 0.000000 0.378762 2.950642 -0.965944 -0.115326 2.812782 0.448782 -0.077459 -1.370590 -0.884359 0.000000 0.000000 0.000000 -2.489451 1.272679 0.744840 -0.046134 2.208946 -2.062749 0.168066 -0.624718 1.908650 0.000000 0.000000 0.000000 -0.612575 1.782867 -0.874478 -0.839326 0.133960 2.266619 -0.669216 -0.930515 -0.545225 0.000000 0.000000 0.000000 0.194793 1.514738 0.936500 0.251805 -0.777564 -1.675096 0.149660 -0.127953 0.060062 0.000000 0.000000 0.000000 
-2545.379395 932.489380 1096.637939 6.429438 -0.784155 -0.047753 -1.616612 -3.559608 -1.145982 -1.484582 0.584508 0.063184 -1.516008 -0.726374 -0.167962 -1.618959 -0.540476 4.991503 0.000000 0.000000 0.000000 0.391311 2.946734 -0.948491 -0.119509 2.819668 0.416330 -0.076813 -1.373836 -0.879855 0.000000 0.000000 0.000000 -2.494997 1.270273 0.726499 -0.044992 2.200131 -2.039654 0.167948 -0.610576 1.906627 0.000000 0.000000 0.000000 -0.606126 1.788308 -0.867783 -0.832679 0.123137 2.273077 -0.662974 -0.917961 -0.539130 0.000000 0.000000 0.000000 0.210896 1.521447 0.951198 0.268363 -0.779348 -1.674123 0.165440 -0.139372 0.066524 0.000000 0.000000 0.000000 
-2545.265137 932.545654 1096.595947 6.406243 -0.780219 -0.058761 -1.618413 -3.559114 -1.129951 -1.487335 0.586008 0.059766 -1.518514 -0.725213 -0.164523 -1.621055 -0.542999 4.998324 0.000000 0.000000 0.000000 0.402722 2.942382 -0.931790 -0.123550 2.825635 0.384715 -0.076048 -1.378161 -0.874613 0.000000 0.000000 0.000000 -2.499070 1.267080 0.708528 -0.043723 2.190000 -2.014553 0.167850 -0.597478 1.904845 0.000000 0.000000 0.000000 -0.599704 1.793021 -0.863630 -0.826215 0.112728 2.278876 -0.656932 -0.905738 -0.533211 0.000000 0.000000 0.000000 0.227052 1.527920 0.963049 0.284810 -0.781790 -1.672966 0.181176 -0.149968 0.073018 0.000000 0.000000 0.000000 
-2545.162109 932.602356 1096.557007 6.384733 -0.774843 -0.066708 -1.621804 -3.557654 -1.116340 -1.491677 0.585967 0.055252 -1.522508 -0.721364 -0.161380 -1.623113 -0.545621 5.005107 0.000000 0.000000 0.000000 0.413725 2.936468 -0.917839 -0.126990 2.828828 0.356886 -0.075157 -1.382825 -0.868453 0.000000 0.000000 0.000000 -2.500380 1.261821 0.692522 -0.042432 2.177475 -1.988277 0.167722 -0.585152 1.902743 0.000000 0.000000 0.000000 -0.593617 1.795809 -0.862533 -0.820281 0.101874 2.283991 -0.651477 -0.892722 -0.527351 0.000000 0.000000 0.000000 0.243004 1.532387 0.971939 0.300975 -0.785321 -1.672779 0.196679 -0.158604 0.079527 0.000000 0.000000 0.000000 
-2545.067871 932.657532 1096.524048 6.364002 -0.769655 -0.072161 -1.626330 -3.553000 -1.106494 -1.497042 0.584728 0.052354 -1.527609 -0.718670 -0.158821 -1.624555 -0.547646 5.010158 0.000000 0.000000 0.000000 0.424193 2.930363 -0.904837 -0.130228 2.831326 0.330476 -0.074141 -1.388468 -0.861507 0.000000 0.000000 0.000000 -2.499604 1.256099 0.677140 -0.041036 2.163943 -1.960288 0.167632 -0.573300 1.901072 0.000000 0.000000 0.000000 -0.587904 1.798130 -0.863840 -0.814873 0.091465 2.288560 -0.646539 -0.880398 -0.521905 0.000000 0.000000 0.000000 0.258791 1.536722 0.978184 0.316825 -0.789523 -1.672597 0.211923 -0.166595 0.085960 0.000000 0.000000 0.000000 
-2544.984863 932.712097 1096.495972 6.343430 -0.765274 -0.076468 -1.629692 -3.546653 -1.098012 -1.501266 0.581964 0.048846 -1.531466 -0.713870 -0.155809 -1.625794 -0.551754 5.014007 0.000000 0.000000 0.000000 0.432496 2.923396 -0.889393 -0.133717 2.833387 0.301745 -0.072985 -1.394636 -0.853537 0.000000 0.000000 0.000000 -2.500830 1.248166 0.662572 -0.039631 2.148557 -1.931536 0.167422 -0.563241 1.898113 0.000000 0.000000 0.000000 -0.582226 1.801008 -0.866419 -0.809569 0.080507 2.292964 -0.641730 -0.867854 -0.516460 0.000000 0.000000 0.000000 0.275053 1.541226 0.983175 0.333073 -0.793626 -1.672152 0.227562 -0.174781 0.092560 0.000000 0.000000 0.000000 
-2544.909668 932.766296 1096.468018 6.322353 -0.763133 -0.080252 -1.630957 -3.538036 -1.090953 -1.503278 0.580812 0.047015 -1.533309 -0.711043 -0.154790 -1.626869 -0.555839 5.017235 0.000000 0.000000 0.000000 0.433534 2.916312 -0.869425 -0.137703 2.835519 0.268947 -0.071613 -1.402246 -0.844123 0.000000 0.000000 0.000000 -2.505361 1.238193 0.650925 -0.038326 2.132455 -1.904069 0.167133 -0.554982 1.894320 0.000000 0.000000 0.000000 -0.576419 1.806972 -0.869580 -0.804079 0.067398 2.297054 -0.636787 -0.855677 -0.511050 0.000000 0.000000 0.000000 0.291845 1.548429 0.986905 0.349568 -0.799189 -1.669865 0.243631 -0.182576 0.099379 0.000000 0.000000 0.000000 
-2544.844482 932.818909 1096.443970 6.301351 -0.762139 -0.082691 -1.630688 -3.527779 -1.086921 -1.503631 0.579048 0.046244 -1.533473 -0.706850 -0.153133 -1.627263 -0.562610 5.017582 0.000000 0.000000 0.000000 0.430527 2.908666 -0.848038 -0.141793 2.836836 0.234868 -0.070189 -1.409840 -0.834298 0.000000 0.000000 0.000000 -2.513846 1.226024 0.639836 -0.037020 2.114785 -1.875747 0.166683 -0.547731 1.888769 0.000000 0.000000 0.000000 -0.570790 1.813926 -0.874272 -0.798869 0.053593 2.301268 -0.632117 -0.843760 -0.505832 0.000000 0.000000 0.000000 0.309158 1.556477 0.989382 0.366488 -0.805054 -1.667604 0.260118 -0.190531 0.106379 0.000000 0.000000 0.000000 
-2544.798340 932.873474 1096.427979 6.282805 -0.759438 -0.083061 -1.629417 -3.519595 -1.086039 -1.502739 0.577707 0.046946 -1.532539 -0.703314 -0.153449 -1.628137 -0.567333 5.019791 0.000000 0.000000 0.000000 0.427457 2.901232 -0.826606 -0.145393 2.837713 0.204373 -0.069201 -1.414127 -0.827298 0.000000 0.000000 0.000000 -2.524567 1.212635 0.630868 -0.035673 2.096416 -1.846014 0.165814 -0.543291 1.878600 0.000000 0.000000 0.000000 -0.565903 1.816767 -0.881433 -0.794707 0.042901 2.305641 -0.628382 -0.832447 -0.501194 0.000000 0.000000 0.000000 0.326321 1.560011 0.990104 0.383442 -0.808120 -1.666343 0.276430 -0.199498 0.113237 0.000000 0.000000 0.000000 
